<svg width="360" height="640" viewBox="0 0 360 640" fill="none" xmlns="http://www.w3.org/2000/svg">
<g clip-path="url(#clip0)">
<rect width="360" height="640" fill="url(#paint0_linear)"/>
<path fill-rule="evenodd" clip-rule="evenodd" d="M59.6946 473.569L259.249 356.907L59.6946 240.244L-139.86 356.907L59.6946 473.569ZM59.6946 429.053L182.497 356.907L59.6946 283.225L-60.5892 357.009L59.6946 429.053Z" fill="#F5A200" fill-opacity="0.1"/>
<path fill-rule="evenodd" clip-rule="evenodd" d="M-146 365.047L53.5546 481.71V702.755L-146 598.372V365.047ZM-106.089 432.589L13.6437 500.13V644.423L-106.089 579.952V432.589Z" fill="#F5A200" fill-opacity="0.1"/>
<path fill-rule="evenodd" clip-rule="evenodd" d="M265.389 365.047L65.8349 481.71V702.755L265.389 598.372V365.047ZM225.478 432.589L105.746 500.13V644.423L225.478 579.952V432.589Z" fill="#F5A200" fill-opacity="0.1"/>
<path fill-rule="evenodd" clip-rule="evenodd" d="M180 305.568L223.657 280.046L180 254.523L136.343 280.046L180 305.568ZM180 295.829L206.866 280.046L180 263.926L153.685 280.068L180 295.829Z" fill="#F5A200"/>
<path fill-rule="evenodd" clip-rule="evenodd" d="M135 282.389L178.657 307.911V356.27L135 333.434V282.389ZM143.731 297.165L169.925 311.941V343.508L143.731 329.404V297.165Z" fill="#F5A200"/>
<path fill-rule="evenodd" clip-rule="evenodd" d="M225 282.389L181.343 307.911V356.27L225 333.434V282.389ZM216.269 297.165L190.075 311.941V343.508L216.269 329.404V297.165Z" fill="#F5A200"/>
<path d="M133.333 392V377.07H137.927C139.239 377.07 140.412 377.368 141.444 377.962C142.483 378.55 143.293 379.391 143.874 380.485C144.455 381.572 144.746 382.809 144.746 384.197V384.884C144.746 386.271 144.458 387.505 143.884 388.585C143.317 389.666 142.514 390.503 141.475 391.098C140.436 391.692 139.263 391.993 137.958 392H133.333ZM136.409 379.562V389.529H137.896C139.099 389.529 140.019 389.136 140.654 388.35C141.29 387.563 141.615 386.439 141.628 384.976V384.187C141.628 382.669 141.314 381.521 140.685 380.741C140.056 379.955 139.137 379.562 137.927 379.562H136.409ZM159.124 385.53H153.217V389.529H160.149V392H150.141V377.07H160.129V379.562H153.217V383.12H159.124V385.53ZM172.845 388.083C172.845 387.502 172.64 387.058 172.23 386.75C171.82 386.436 171.082 386.107 170.015 385.766C168.949 385.417 168.105 385.075 167.483 384.74C165.787 383.824 164.94 382.59 164.94 381.039C164.94 380.232 165.165 379.514 165.616 378.885C166.074 378.25 166.727 377.754 167.575 377.398C168.429 377.043 169.386 376.865 170.446 376.865C171.512 376.865 172.463 377.06 173.297 377.45C174.131 377.833 174.777 378.376 175.235 379.08C175.699 379.784 175.932 380.584 175.932 381.479H172.856C172.856 380.796 172.64 380.266 172.21 379.89C171.779 379.507 171.174 379.316 170.395 379.316C169.643 379.316 169.058 379.477 168.641 379.798C168.224 380.112 168.016 380.529 168.016 381.049C168.016 381.534 168.258 381.941 168.744 382.269C169.236 382.597 169.957 382.905 170.907 383.192C172.657 383.718 173.932 384.371 174.732 385.15C175.532 385.93 175.932 386.9 175.932 388.062C175.932 389.354 175.443 390.37 174.466 391.108C173.488 391.839 172.172 392.205 170.518 392.205C169.369 392.205 168.323 391.997 167.38 391.58C166.437 391.156 165.716 390.578 165.217 389.847C164.724 389.115 164.478 388.268 164.478 387.304H167.565C167.565 388.951 168.549 389.775 170.518 389.775C171.249 389.775 171.82 389.628 172.23 389.334C172.64 389.033 172.845 388.616 172.845 388.083ZM192.412 379.562H187.839V392H184.763V379.562H180.251V377.07H192.412V379.562ZM202.852 386.535H200.402V392H197.326V377.07H202.873C204.637 377.07 205.997 377.463 206.954 378.25C207.911 379.036 208.39 380.146 208.39 381.582C208.39 382.601 208.167 383.452 207.723 384.135C207.286 384.812 206.619 385.352 205.724 385.755L208.954 391.856V392H205.652L202.852 386.535ZM200.402 384.043H202.883C203.656 384.043 204.254 383.848 204.678 383.458C205.101 383.062 205.313 382.519 205.313 381.828C205.313 381.124 205.112 380.57 204.708 380.167C204.312 379.764 203.7 379.562 202.873 379.562H200.402V384.043ZM222.316 388.924H216.923L215.897 392H212.626L218.184 377.07H221.035L226.623 392H223.352L222.316 388.924ZM217.753 386.432H221.486L219.609 380.844L217.753 386.432Z" fill="#F5A200"/>
</g>
<defs>
<linearGradient id="paint0_linear" x1="360" y1="640" x2="-2.38419e-05" y2="1.3411e-05" gradientUnits="userSpaceOnUse">
<stop offset="0.286458"/>
<stop offset="1" stop-color="#222222"/>
</linearGradient>
<clipPath id="clip0">
<rect width="360" height="640" fill="white"/>
</clipPath>
</defs>
</svg>
